HIERARCHY
ROOT hip
{
  OFFSET 0 0 0
  CHANNELS 6 Xposition Yposition Zposition Zrotation Yrotation Xrotation
  JOINT abdomen
  {
    OFFSET 0 20.6881 -0.73152
    CHANNELS 3 Zrotation Xrotation Yrotation
    JOINT chest
    {
      OFFSET 0 11.7043 -0.48768
      CHANNELS 3 Zrotation Xrotation Yrotation
      JOINT neck
      {
        OFFSET 0 22.1894 -2.19456
        CHANNELS 3 Zrotation Xrotation Yrotation
        JOINT head
        {
          OFFSET -0.24384 7.07133 1.2192
          CHANNELS 3 Zrotation Xrotation Yrotation
          JOINT leftEye
          {
            OFFSET 4.14528 8.04674 8.04672
            CHANNELS 3 Zrotation Xrotation Yrotation
            End Site
            {
              OFFSET 1 0 0
            }
          }
          JOINT rightEye
          {
            OFFSET -3.6576 8.04674 8.04672
            CHANNELS 3 Zrotation Xrotation Yrotation
            End Site
            {
              OFFSET 1 0 0
            }
          }
        }
      }
      JOINT rCollar
      {
        OFFSET -2.68224 19.2634 -4.8768
        CHANNELS 3 Zrotation Xrotation Yrotation
        JOINT rShldr
        {
          OFFSET -8.77824 -1.95073 1.46304
          CHANNELS 3 Zrotation Xrotation Yrotation
          JOINT rForeArm
          {
            OFFSET -28.1742 -1.7115 0.48768
            CHANNELS 3 Zrotation Xrotation Yrotation
            JOINT rHand
            {
              OFFSET -22.5879 0.773209 7.07136
              CHANNELS 3 Zrotation Xrotation Yrotation
              JOINT rThumb1
              {
                OFFSET -1.2192 -0.487915 3.41376
                CHANNELS 3 Zrotation Xrotation Yrotation
                JOINT rThumb2
                {
                  OFFSET -3.37035 -0.52449 3.41376
                  CHANNELS 3 Zrotation Xrotation Yrotation
                  End Site
                  {
                    OFFSET -1.78271 -1.18214 1.43049
                  }
                }
              }
              JOINT rIndex1
              {
                OFFSET -7.75947 0.938293 5.60832
                CHANNELS 3 Zrotation Xrotation Yrotation
                JOINT rIndex2
                {
                  OFFSET -2.54057 -0.884171 1.56538
                  CHANNELS 3 Zrotation Xrotation Yrotation
                  End Site
                  {
                    OFFSET -1.62519 -0.234802 1.16502
                  }
                }
              }
              JOINT rMid1
              {
                OFFSET -8.24714 1.18213 3.41376
                CHANNELS 3 Zrotation Xrotation Yrotation
                JOINT rMid2
                {
                  OFFSET -3.10165 -0.590103 1.0647
                  CHANNELS 3 Zrotation Xrotation Yrotation
                  End Site
                  {
                    OFFSET -2.48547 -0.328903 0.83742
                  }
                }
              }
              JOINT rRing1
              {
                OFFSET -8.82822 0.546677 1.51678
                CHANNELS 3 Zrotation Xrotation Yrotation
                JOINT rRing2
                {
                  OFFSET -2.60934 -0.819778 -0.0198488
                  CHANNELS 3 Zrotation Xrotation Yrotation
                  End Site
                  {
                    OFFSET -2.33842 -0.294052 0.168128
                  }
                }
              }
              JOINT rPinky1
              {
                OFFSET -8.27202 -0.0477905 -0.4584
                CHANNELS 3 Zrotation Xrotation Yrotation
                JOINT rPinky2
                {
                  OFFSET -1.82734 -0.647385 -0.700984
                  CHANNELS 3 Zrotation Xrotation Yrotation
                  End Site
                  {
                    OFFSET -1.69225 -0.51767 -0.607171
                  }
                }
              }
            }
          }
        }
      }
      JOINT lCollar
      {
        OFFSET 2.68224 19.2634 -4.8768
        CHANNELS 3 Zrotation Xrotation Yrotation
        JOINT lShldr
        {
          OFFSET 8.77824 -1.95073 1.46304
          CHANNELS 3 Zrotation Xrotation Yrotation
          JOINT lForeArm
          {
            OFFSET 28.1742 -1.7115 0.48768
            CHANNELS 3 Zrotation Xrotation Yrotation
            JOINT lHand
            {
              OFFSET 22.5879 0.773209 7.07136
              CHANNELS 3 Zrotation Xrotation Yrotation
              JOINT lThumb1
              {
                OFFSET 1.2192 -0.487915 3.41376
                CHANNELS 3 Zrotation Xrotation Yrotation
                JOINT lThumb2
                {
                  OFFSET 3.37035 -0.52449 3.41376
                  CHANNELS 3 Zrotation Xrotation Yrotation
                  End Site
                  {
                    OFFSET 1.78271 -1.18214 1.43049
                  }
                }
              }
              JOINT lIndex1
              {
                OFFSET 7.75947 0.938293 5.60832
                CHANNELS 3 Zrotation Xrotation Yrotation
                JOINT lIndex2
                {
                  OFFSET 2.54057 -0.884171 1.56538
                  CHANNELS 3 Zrotation Xrotation Yrotation
                  End Site
                  {
                    OFFSET 1.62519 -0.234802 1.16502
                  }
                }
              }
              JOINT lMid1
              {
                OFFSET 8.24714 1.18213 3.41376
                CHANNELS 3 Zrotation Xrotation Yrotation
                JOINT lMid2
                {
                  OFFSET 3.10165 -0.590103 1.0647
                  CHANNELS 3 Zrotation Xrotation Yrotation
                  End Site
                  {
                    OFFSET 2.48547 -0.328903 0.83742
                  }
                }
              }
              JOINT lRing1
              {
                OFFSET 8.82822 0.546677 1.51678
                CHANNELS 3 Zrotation Xrotation Yrotation
                JOINT lRing2
                {
                  OFFSET 2.60934 -0.819778 -0.0198488
                  CHANNELS 3 Zrotation Xrotation Yrotation
                  End Site
                  {
                    OFFSET 2.33842 -0.294052 0.168128
                  }
                }
              }
              JOINT lPinky1
              {
                OFFSET 8.27202 -0.0477905 -0.4584
                CHANNELS 3 Zrotation Xrotation Yrotation
                JOINT lPinky2
                {
                  OFFSET 1.82734 -0.647385 -0.700984
                  CHANNELS 3 Zrotation Xrotation Yrotation
                  End Site
                  {
                    OFFSET 1.69225 -0.51767 -0.607171
                  }
                }
              }
            }
          }
        }
      }
    }
  }
  JOINT rButtock
  {
    OFFSET -8.77824 4.35084 1.2192
    CHANNELS 3 Zrotation Xrotation Yrotation
    JOINT rThigh
    {
      OFFSET 0 -1.70687 -2.19456
      CHANNELS 3 Zrotation Xrotation Yrotation
      JOINT rShin
      {
        OFFSET 0 -36.8199 0.73152
        CHANNELS 3 Zrotation Xrotation Yrotation
        JOINT rFoot
        {
          OFFSET 0.73152 -45.1104 -5.12064
          CHANNELS 3 Zrotation Xrotation Yrotation
          End Site
          {
            OFFSET -1.1221 -3.69964 12.103
          }
        }
      }
    }
  }
  JOINT lButtock
  {
    OFFSET 8.77824 4.35084 1.2192
    CHANNELS 3 Zrotation Xrotation Yrotation
    JOINT lThigh
    {
      OFFSET 0 -1.70687 -2.19456
      CHANNELS 3 Zrotation Xrotation Yrotation
      JOINT lShin
      {
        OFFSET 0 -36.8199 0.73152
        CHANNELS 3 Zrotation Xrotation Yrotation
        JOINT lFoot
        {
          OFFSET -0.73152 -45.1104 -5.12064
          CHANNELS 3 Zrotation Xrotation Yrotation
          End Site
          {
            OFFSET 1.1221 -3.69964 12.103
          }
        }
      }
    }
  }
}
MOTION
Frames:	4
Frame Time:	0.03333
3.2506 59.6141 1.2775 21.197825 71.255903 20.200547 -14.512328 15.588127 3.385141 4.826906 -10.88326 -6.942044 -14.282807 24.066715 -72.496299 34.465892 2.217663 43.135993 -0.001198 0.0 -0.001953 -0.001054 -0.0 0.001522 -0.12243 0.727046 0.161733 59.575644 16.978352 2.107107 83.722346 -24.549848 79.476242 -151.853405 65.853006 130.229132 178.61897 -18.760076 89.037634 -2.201532 -58.22058 1.513373 -150.5678 -15.701815 120.868619 -23.774782 45.54852 12.173856 89.035855 -81.392519 59.761924 4.087156 -3.16408 -0.214837 -145.097897 -1.519756 -178.649628 -54.60859 87.580344 67.949209 -19.184676 -32.413558 -18.378504 -3.872486 -16.347764 -6.352296 155.548767 -3.804379 -161.899533 -128.462841 74.488074 -177.139839 -102.76382 -67.717827 -36.052025 -171.486179 -5.952704 -146.351369 176.599322 -14.212763 -89.690552 135.877225 12.877227 -69.010304 27.421518 30.639682 -20.097805 -85.582807 -61.342947 -37.473566 0.570967 1.648385 -0.321982 175.044804 -39.013263 -143.395545 145.119471 0.310127 179.225672 -12.112433 44.670729 3.868701 1.148148 -2.914424 1.066974 147.790933 13.370615 144.10056 -0.00053 0.000909 0.000681 -57.832176 -53.779168 -63.096659 -60.277875 73.897672 -86.752145 113.491684 -2.653761 -161.139486 -0.003934 0.000909 -0.001967 10.781308 6.909101 142.326896 34.037865 -35.437518 -72.083828 -71.891283 -4.445 -19.571199
3.2852 59.5313 1.3211 21.442281 71.301389 20.434681 -14.680002 15.609134 3.431225 4.912513 -10.891023 -6.999631 -13.94272 27.741128 -93.980342 35.656471 13.934901 61.124512 0.001774 -0.0 -0.001454 -0.003772 -0.0 0.002596 3.191336 -25.838885 -5.074975 63.602194 30.135352 -20.278133 -179.255371 8.310533 97.461554 162.515292 -29.298766 141.590473 -178.519489 -16.064183 89.475782 121.712242 -64.080246 91.303721 2.325386 -3.86797 -1.259177 -177.429716 -34.475058 106.386495 3.77594 -11.559349 -1.813305 -34.408886 55.154114 28.969508 -145.100476 -1.522069 -178.649915 11.336644 13.754923 -7.37844 -123.036328 -31.10265 -120.853663 -75.649844 -53.288701 -76.074413 -3.192315 -25.83891 5.073715 -162.998551 79.123652 87.61634 -175.938639 65.493335 -119.805924 -163.545137 -27.134609 -142.245774 160.052375 2.213155 -88.877014 1.263188 -47.047431 -14.08414 -2.325163 -3.868166 1.258167 65.472753 48.478669 -50.844062 160.826288 -7.14214 -143.315046 2.071833 14.259469 -2.939854 69.298109 72.945871 -87.017539 159.827494 -1.727229 -176.396866 104.234023 -44.88933 102.39424 24.382395 -40.761974 26.44583 179.968129 75.750768 0.026223 149.521694 5.943484 2.822243 -27.064578 73.394892 -45.187728 124.974753 54.520045 -42.331394 179.895666 75.749334 0.080415 -121.774295 77.905815 36.20673 42.961276 4.10112 -96.058716 -138.330833 -49.171919 -47.597573
3.3035 59.4683 1.3857 21.397959 71.413692 20.385807 -14.385406 15.603151 -0.0 5.38745 -10.55626 -3.638877 7.646145 24.884206 99.88613 -31.691061 15.051613 -127.555391 -0.000914 0.0 -0.001484 -0.000914 0.0 -0.001484 -142.973882 39.431579 147.389908 -86.86659 35.626831 65.676291 112.755817 38.645285 -84.98729 -88.77494 77.002852 71.280882 -7.758568 7.439129 1.681731 75.413196 -75.573317 7.106497 -2.684829 4.227202 1.583492 -66.014059 48.367107 50.489562 23.903635 -61.333863 1.399271 -88.797592 63.973703 80.342532 -145.118654 0.184775 -179.188012 -76.145035 -77.985283 -97.661805 -152.50264 38.523357 -147.798182 -142.933031 -2.054966 -137.995608 149.90522 22.42187 -154.975577 66.657472 13.485998 -23.363939 -16.841558 -1.515486 64.416372 -168.432004 -15.320029 -144.914321 -1.6002 -1.586537 0.224359 129.164999 -24.247905 -115.053014 -37.214021 -57.918422 0.645685 -3.018372 19.84578 -1.164228 145.289637 29.524911 -132.692982 170.326701 -26.297553 -143.922692 145.118242 0.226535 179.199659 -10.187738 -0.278336 9.031184 -12.25404 41.424904 -10.277162 25.078531 -41.103727 25.138472 -179.992549 75.74961 -0.007688 150.593654 5.19213 -70.888136 -70.673993 17.565438 121.707695 49.758389 -31.910777 -27.592107 179.997708 75.749412 0.002365 -121.605959 77.693339 35.519986 53.84167 9.750999 132.00617 110.186548 8.357848 154.449806
3.3355 59.4322 1.3906999999999998 20.890537 71.590398 19.9919 -12.415311 11.581635 -132.363709 2.552058 6.995335 127.552455 -8.371066 33.71373 -141.34205 24.420427 36.136636 104.144817 0.000458 0.0 0.000867 0.000458 0.0 0.000867 -159.220086 -48.028496 170.415365 -38.550068 -12.939805 -25.794898 177.522395 24.502648 -131.342533 -10.924369 39.746074 3.330459 -121.364504 30.329321 71.957683 23.526286 -37.978049 26.708319 -145.523019 -6.584756 118.766279 77.066977 -68.253936 26.957834 -169.090282 -33.247327 145.374663 -4.948961 20.721852 4.632587 -72.756903 -72.144067 -89.771824 14.10846 26.538829 -1.046689 -157.326335 57.246001 -150.515608 -6.499951 -17.370623 -8.446098 155.716199 -4.925373 -162.135637 56.828289 14.099725 3.666416 162.075187 3.541219 152.45674 1.609454 13.064927 -1.05214 -93.027994 -51.083061 -40.501543 88.804074 38.095161 -48.911742 172.89917 -51.893882 -120.178306 60.622077 56.720491 -47.829136 142.3811 33.885383 -130.25962 -11.143347 -23.412629 1.216736 145.099246 -1.521666 178.651305 153.620956 -15.838445 176.986269 -12.251616 41.425141 -10.279561 116.03279 -42.082521 114.094076 -179.996037 75.749886 -0.002712 149.41277 5.963859 2.84647 20.378713 73.821786 62.272287 6.525814 -61.706821 -83.116136 0.00018 -0.000244 -0.000231 13.051619 7.547841 -88.974147 -43.343271 -6.115621 86.6166 -122.855788 -52.747238 -37.107199
